<svg xmlns="http://www.w3.org/2000/svg" width="21" height="18" viewBox="0 0 21 18">
  <metadata><?xpacket begin="﻿" id="W5M0MpCehiHzreSzNTczkc9d"?>
<x:xmpmeta xmlns:x="adobe:ns:meta/" x:xmptk="Adobe XMP Core 5.6-c138 79.159824, 2016/09/14-01:09:01        ">
   <rdf:RDF xmlns:rdf="http://www.w3.org/1999/02/22-rdf-syntax-ns#">
      <rdf:Description rdf:about=""/>
   </rdf:RDF>
</x:xmpmeta>
                                                                                                    
                                                                                                    
                                                                                                    
                                                                                                    
                                                                                                    
                                                                                                    
                                                                                                    
                                                                                                    
                                                                                                    
                                                                                                    
                                                                                                    
                                                                                                    
                                                                                                    
                                                                                                    
                                                                                                    
                                                                                                    
                                                                                                    
                                                                                                    
                                                                                                    
                                                                                                    
                           
<?xpacket end="w"?></metadata>
<defs>
    <style>
      .cls-1 {
        fill: #636363;
        fill-rule: evenodd;
      }
    </style>
  </defs>
  <path id="Forma_1" data-name="Forma 1" class="cls-1" d="M1138.09,55.88l-0.29-1.8h-1.05a1.441,1.441,0,1,0,0,.72h0.45l0.18,1.08h-0.02l1.81,9.366a1.813,1.813,0,0,0-1.66,1.611,1.838,1.838,0,0,0,.44,1.389,1.738,1.738,0,0,0,1.3.595h0.7a2.1,2.1,0,1,0,4.2,0H1148a2.1,2.1,0,1,0,4.2,0h1.4a0.36,0.36,0,0,0,0-.72h-1.52a2.081,2.081,0,0,0-3.96,0h-4.09a2.081,2.081,0,0,0-3.96,0h-0.82a1.063,1.063,0,0,1-1.04-1.191,1.1,1.1,0,0,1,1.11-.968h13.93a1.773,1.773,0,0,0,1.75-1.8V55.88h-16.91Zm-2.69-.72a0.72,0.72,0,1,1,.7-0.72A0.708,0.708,0,0,1,1135.4,55.16Zm14.7,12.24a1.441,1.441,0,1,1-1.4,1.44A1.423,1.423,0,0,1,1150.1,67.4Zm-8.05,0a1.441,1.441,0,1,1-1.4,1.44A1.423,1.423,0,0,1,1142.05,67.4Zm12.25-3.235a1.063,1.063,0,0,1-1.05,1.075h-13.36l-1.67-8.64h16.08v7.565Z" transform="translate(-1134 -53)"/>
</svg>
